<svg aria-hidden="true" style="position:absolute;width:0;height:0;overflow:hidden" xmlns="http://www.w3.org/2000/svg">
    <defs>
        <symbol id="logo-desktop_tablet" viewBox="0 0 24 24">
            <path d="M2.95799 15.0567L11.0406 1.98848L11.5206 1.4829L17.6974 5.60128L17.7397 8.08653L19.2472 10.5462L12.5874 21.1036L2.95799 15.0567Z" fill="#FCF1E0"/>
            <path d="M16.2259 17.9096L5.5868 11.2615M8.52069 6.44892L19.1598 13.097M7.97248 19.3981L16.7742 4.96039M20.3823 11.0918C18.1025 9.66717 17.2071 8.55383 18.674 6.14755L11.4546 1.63635L2.6529 16.0741L13.2921 22.7221L20.3823 11.0918Z" stroke="#FD9222" stroke-width="2" stroke-linecap="round" stroke-linejoin="round" fill="none" />
        </symbol>
        <symbol id="instagram" viewBox="0 0 24 24" fill="none">
            <path d="M17 2H7C4.23858 2 2 4.23858 2 7V17C2 19.7614 4.23858 22 7 22H17C19.7614 22 22 19.7614 22 17V7C22 4.23858 19.7614 2 17 2Z" stroke-width="2" stroke-linecap="round" stroke-linejoin="round"/>
            <path d="M16 11.3701C16.1234 12.2023 15.9813 13.0523 15.5938 13.7991C15.2063 14.5459 14.5932 15.1515 13.8416 15.5297C13.0901 15.908 12.2385 16.0397 11.4078 15.906C10.5771 15.7723 9.80977 15.3801 9.21485 14.7852C8.61993 14.1903 8.22774 13.4229 8.09408 12.5923C7.96042 11.7616 8.09208 10.91 8.47034 10.1584C8.8486 9.40691 9.4542 8.7938 10.201 8.4063C10.9478 8.0188 11.7978 7.87665 12.63 8.00006C13.4789 8.12594 14.2649 8.52152 14.8717 9.12836C15.4785 9.73521 15.8741 10.5211 16 11.3701Z" stroke-width="2" stroke-linecap="round" stroke-linejoin="round"/>
            <path d="M16 11.3701C16.1234 12.2023 15.9813 13.0523 15.5938 13.7991C15.2063 14.5459 14.5932 15.1515 13.8416 15.5297C13.0901 15.908 12.2385 16.0397 11.4078 15.906C10.5771 15.7723 9.80977 15.3801 9.21485 14.7852C8.61993 14.1903 8.22774 13.4229 8.09408 12.5923C7.96042 11.7616 8.09208 10.91 8.47034 10.1584C8.8486 9.40691 9.4542 8.7938 10.201 8.4063C10.9478 8.0188 11.7978 7.87665 12.63 8.00006C13.4789 8.12594 14.2649 8.52152 14.8717 9.12836C15.4785 9.73521 15.8741 10.5211 16 11.3701Z" stroke-width="2" stroke-linecap="round" stroke-linejoin="round"/>
            <path d="M17.5 6.5H17.51" stroke-width="2" stroke-linecap="round" stroke-linejoin="round"/>
            <path d="M17.5 6.5H17.51" stroke-width="2" stroke-linecap="round" stroke-linejoin="round"/>
        </symbol>
        <symbol id="twitter" viewBox="0 0 24 24" fill="none">
            <path d="M23 3.00005C22.0424 3.67552 20.9821 4.19216 19.86 4.53005C19.2577 3.83756 18.4573 3.34674 17.567 3.12397C16.6767 2.90121 15.7395 2.95724 14.8821 3.2845C14.0247 3.61176 13.2884 4.19445 12.773 4.95376C12.2575 5.71308 11.9877 6.61238 12 7.53005V8.53005C10.2426 8.57561 8.50127 8.18586 6.93101 7.39549C5.36074 6.60513 3.51032 4.72313 2.5 3.2845C2.5 3.2845 -1 13 8 17C5.94053 18.398 3.48716 19.099 1 19C10 24 21 19 21 7.50005C20.9991 7.2215 20.9723 6.94364 20.92 6.67005C21.9406 5.66354 22.6608 4.39276 23 3.00005Z"  stroke-width="2" stroke-linecap="round" stroke-linejoin="round"/>
        </symbol>
        <symbol id="ellipse_1" viewBox="0 0 38 38" >
            <ellipse cx="19" cy="19" rx="19" ry="19" transform="matrix(0 1 1 0 0 0)" />
        </symbol>
        <symbol id="arrow_down" viewBox="0 0 22 22" >
            <path d="M11.6508 12.2835C11.5656 12.3694 11.4642 12.4376 11.3525 12.4842C11.2408 12.5307 11.121 12.5547 11 12.5547C10.879 12.5547 10.7592 12.5307 10.6475 12.4842C10.5358 12.4376 10.4344 12.3694 10.3492 12.2835L6.15084 8.076C6.06562 7.99008 5.96424 7.92189 5.85253 7.87535C5.74083 7.82881 5.62102 7.80485 5.50001 7.80485C5.37899 7.80485 5.25918 7.82881 5.14748 7.87535C5.03577 7.92189 4.93439 7.99008 4.84917 8.076C4.67844 8.24775 4.58261 8.48008 4.58261 8.72225C4.58261 8.96442 4.67844 9.19675 4.84917 9.3685L9.05668 13.576C9.5723 14.091 10.2713 14.3802 11 14.3802C11.7288 14.3802 12.4277 14.091 12.9433 13.576L17.1509 9.3685C17.3202 9.19776 17.4157 8.96731 17.4167 8.72684C17.4174 8.6062 17.3943 8.4866 17.3486 8.37492C17.303 8.26324 17.2358 8.16166 17.1509 8.076C17.0656 7.99008 16.9643 7.92189 16.8525 7.87535C16.7408 7.82881 16.621 7.80485 16.5 7.80485C16.379 7.80485 16.2592 7.82881 16.1475 7.87535C16.0358 7.92189 15.9344 7.99008 15.8492 8.076L11.6508 12.2835Z" />
        </symbol>
        <symbol id="icon-description__chocolate" viewBox="0 0 32 32" fill="none">
            <path d="M13.822 2.41301L21.349 9.94901L21.429 9.86901C21.5867 9.71469 21.7978 9.6272 22.0184 9.62477C22.239 9.62235 22.452 9.70519 22.613 9.85601L22.619 9.86201L23.486 10.729C23.791 11.034 23.801 11.499 23.569 11.823L23.565 11.83L23.422 12.022L29.582 18.182C30.132 18.732 30.132 19.612 29.582 20.162L20.152 29.592C19.602 30.142 18.722 30.142 18.172 29.592L13.725 25.145C13.6512 25.2381 13.5584 25.3145 13.4529 25.3692C13.3474 25.4239 13.2316 25.4556 13.1129 25.4623C12.9943 25.469 12.8756 25.4505 12.7646 25.4081C12.6536 25.3656 12.5529 25.3002 12.469 25.216L9.86901 22.616C9.71469 22.4584 9.6272 22.2472 9.62477 22.0266C9.62235 21.806 9.70519 21.593 9.85601 21.432L9.86201 21.425L9.93901 21.349L2.41201 13.822C1.86201 13.272 1.86201 12.392 2.41201 11.842L11.842 2.41201C12.392 1.86201 13.272 1.86201 13.822 2.41201V2.41301ZM20.404 10.893L18.648 9.13801C18.5928 9.0811 18.5268 9.03585 18.4538 9.00495C18.3808 8.97405 18.3023 8.95813 18.223 8.95813C18.1437 8.95813 18.0653 8.97405 17.9923 9.00495C17.9193 9.03585 17.8532 9.0811 17.798 9.13801L14.218 12.718C14.1613 12.7743 14.1163 12.8413 14.0856 12.9151C14.0548 12.9889 14.039 13.0681 14.039 13.148C14.039 13.2279 14.0548 13.3071 14.0856 13.3809C14.1163 13.4547 14.1613 13.5217 14.218 13.578L15.967 15.327L16.577 14.717L15.012 13.152L18.222 9.93201L19.791 11.506L20.404 10.893ZM15.328 15.965L13.574 14.211C13.5188 14.1541 13.4528 14.1088 13.3798 14.0779C13.3068 14.047 13.2283 14.0311 13.149 14.0311C13.0697 14.0311 12.9913 14.047 12.9183 14.0779C12.8453 14.1088 12.7792 14.1541 12.724 14.211L9.14401 17.791L9.13901 17.796L9.13401 17.801C8.89401 18.031 8.89401 18.411 9.13401 18.651L10.886 20.403L11.502 19.787L9.93201 18.223L13.152 15.013L14.716 16.576L15.328 15.965ZM8.82201 8.19301L12.402 11.773C12.642 12.013 13.022 12.013 13.252 11.763L16.832 8.18301C16.8889 8.12884 16.9342 8.06368 16.9651 7.99148C16.9961 7.91929 17.012 7.84156 17.012 7.76301H17.022C17.022 7.61301 16.962 7.45301 16.842 7.33301L13.262 3.75301C13.2058 3.69617 13.1388 3.65105 13.065 3.62025C12.9912 3.58946 12.912 3.5736 12.832 3.5736C12.752 3.5736 12.6729 3.58946 12.599 3.62025C12.5252 3.65105 12.4583 3.69617 12.402 3.75301L8.82201 7.34301C8.58201 7.57301 8.58201 7.95301 8.82201 8.19301ZM3.75201 13.263L7.33201 16.843C7.57201 17.083 7.95201 17.083 8.18201 16.843L11.762 13.263C11.8201 13.2077 11.8661 13.1409 11.8971 13.0669C11.9281 12.9929 11.9434 12.9132 11.942 12.833H11.952C11.952 12.673 11.892 12.523 11.772 12.403L8.19201 8.82301C8.13683 8.7661 8.07077 8.72085 7.99776 8.68995C7.92476 8.65905 7.84629 8.64313 7.76701 8.64313C7.68774 8.64313 7.60927 8.65905 7.53626 8.68995C7.46326 8.72085 7.3972 8.7661 7.34201 8.82301L3.75201 12.413C3.51201 12.643 3.51201 13.023 3.75201 13.263ZM10.685 22.017L13.047 24.38L22.683 11.34L22.028 10.685L10.685 22.017Z" fill="black"/>
            <path d="M13.822 2.41301L21.349 9.94901L21.429 9.86901C21.5867 9.71469 21.7978 9.6272 22.0184 9.62477C22.239 9.62235 22.452 9.70519 22.613 9.85601L22.619 9.86201L23.486 10.729C23.791 11.034 23.801 11.499 23.569 11.823L23.565 11.83L23.422 12.022L29.582 18.182C30.132 18.732 30.132 19.612 29.582 20.162L20.152 29.592C19.602 30.142 18.722 30.142 18.172 29.592L13.725 25.145C13.6512 25.2381 13.5584 25.3145 13.4529 25.3692C13.3474 25.4239 13.2316 25.4556 13.1129 25.4623C12.9943 25.469 12.8756 25.4505 12.7646 25.4081C12.6536 25.3656 12.5529 25.3002 12.469 25.216L9.86901 22.616C9.71469 22.4584 9.6272 22.2472 9.62477 22.0266C9.62235 21.806 9.70519 21.593 9.85601 21.432L9.86201 21.425L9.93901 21.349L2.41201 13.822C1.86201 13.272 1.86201 12.392 2.41201 11.842L11.842 2.41201C12.392 1.86201 13.272 1.86201 13.822 2.41201V2.41301ZM20.404 10.893L18.648 9.13801C18.5928 9.0811 18.5268 9.03585 18.4538 9.00495C18.3808 8.97405 18.3023 8.95813 18.223 8.95813C18.1437 8.95813 18.0653 8.97405 17.9923 9.00495C17.9193 9.03585 17.8532 9.0811 17.798 9.13801L14.218 12.718C14.1613 12.7743 14.1163 12.8413 14.0856 12.9151C14.0548 12.9889 14.039 13.0681 14.039 13.148C14.039 13.2279 14.0548 13.3071 14.0856 13.3809C14.1163 13.4547 14.1613 13.5217 14.218 13.578L15.967 15.327L16.577 14.717L15.012 13.152L18.222 9.93201L19.791 11.506L20.404 10.893ZM15.328 15.965L13.574 14.211C13.5188 14.1541 13.4528 14.1088 13.3798 14.0779C13.3068 14.047 13.2283 14.0311 13.149 14.0311C13.0697 14.0311 12.9913 14.047 12.9183 14.0779C12.8453 14.1088 12.7792 14.1541 12.724 14.211L9.14401 17.791L9.13901 17.796L9.13401 17.801C8.89401 18.031 8.89401 18.411 9.13401 18.651L10.886 20.403L11.502 19.787L9.93201 18.223L13.152 15.013L14.716 16.576L15.328 15.965ZM8.82201 8.19301L12.402 11.773C12.642 12.013 13.022 12.013 13.252 11.763L16.832 8.18301C16.8889 8.12884 16.9342 8.06368 16.9651 7.99148C16.9961 7.91929 17.012 7.84156 17.012 7.76301H17.022C17.022 7.61301 16.962 7.45301 16.842 7.33301L13.262 3.75301C13.2058 3.69617 13.1388 3.65105 13.065 3.62025C12.9912 3.58946 12.912 3.5736 12.832 3.5736C12.752 3.5736 12.6729 3.58946 12.599 3.62025C12.5252 3.65105 12.4583 3.69617 12.402 3.75301L8.82201 7.34301C8.58201 7.57301 8.58201 7.95301 8.82201 8.19301ZM3.75201 13.263L7.33201 16.843C7.57201 17.083 7.95201 17.083 8.18201 16.843L11.762 13.263C11.8201 13.2077 11.8661 13.1409 11.8971 13.0669C11.9281 12.9929 11.9434 12.9132 11.942 12.833H11.952C11.952 12.673 11.892 12.523 11.772 12.403L8.19201 8.82301C8.13683 8.7661 8.07077 8.72085 7.99776 8.68995C7.92476 8.65905 7.84629 8.64313 7.76701 8.64313C7.68774 8.64313 7.60927 8.65905 7.53626 8.68995C7.46326 8.72085 7.3972 8.7661 7.34201 8.82301L3.75201 12.413C3.51201 12.643 3.51201 13.023 3.75201 13.263ZM10.685 22.017L13.047 24.38L22.683 11.34L22.028 10.685L10.685 22.017Z" fill="#FD9222"/>
        </symbol>
        <symbol id="icon-description__coin" viewBox="0 0 28 28" fill="none">
            <path d="M14 0.666626C6.66667 0.666626 0.666672 6.66663 0.666672 14C0.666672 21.3333 6.66667 27.3333 14 27.3333C21.3333 27.3333 27.3333 21.3333 27.3333 14C27.3333 6.66663 21.3333 0.666626 14 0.666626ZM14 24.6666C8.13334 24.6666 3.33334 19.8666 3.33334 14C3.33334 8.13329 8.13334 3.33329 14 3.33329C19.8667 3.33329 24.6667 8.13329 24.6667 14C24.6667 19.8666 19.8667 24.6666 14 24.6666Z" fill="#FD9222"/>
            <path d="M15.7333 12.6667H12.2667C11.6 12.6667 11.0667 12.1333 11.0667 11.4667C11.0667 10.8 11.6 10.2667 12.2667 10.2667H17.2C18 10.2667 18.5333 9.73332 18.5333 8.93332C18.5333 8.13332 18 7.59998 17.2 7.59998H15.3333V6.39998C15.3333 5.59998 14.8 5.06665 14 5.06665C13.2 5.06665 12.6667 5.59998 12.6667 6.39998V7.59998H12.2667C10.1333 7.59998 8.40001 9.33332 8.40001 11.4667C8.40001 13.6 10.1333 15.3333 12.2667 15.3333H15.6C16.2667 15.3333 16.8 15.8666 16.8 16.5333C16.8 17.2 16.2667 17.7333 15.6 17.7333H10.6667C9.86668 17.7333 9.33334 18.2667 9.33334 19.0667C9.33334 19.8667 9.86668 20.4 10.6667 20.4H12.6667V21.6C12.6667 22.4 13.2 22.9333 14 22.9333C14.8 22.9333 15.3333 22.4 15.3333 21.6V20.4H15.7333C17.8667 20.4 19.6 18.6667 19.6 16.5333C19.6 14.4 17.8667 12.6667 15.7333 12.6667Z" fill="#FD9222"/>
        </symbol>
        <symbol id="icon-description__spoon" viewBox="0 0 32 32" fill="none">
            <path d="M15.4515 14.1059C14.669 13.1559 14.275 11.9899 14.275 10.8239C14.275 6.50016 19.4561 2.18176 24.6371 2.18176C27.4975 2.18176 29.8182 4.5029 29.8182 7.36383C29.8182 12.5459 25.5006 17.728 21.1723 17.728C20.0066 17.728 18.8408 17.3339 17.891 16.5512L5.1326 29.3121C4.45798 29.9868 3.3624 29.9868 2.68779 29.3121C2.01317 28.6373 2.01317 27.5415 2.68779 26.8668L15.4515 14.1059Z" fill="#FD9222"/>
        </symbol>
    </defs>
</svg>



